<?xml version="1.0" encoding="utf-8"?>
<!-- Generator: Adobe Illustrator 19.2.0, SVG Export Plug-In . SVG Version: 6.00 Build 0)  -->
<svg version="1.1" id="Layer_1" xmlns="http://www.w3.org/2000/svg" xmlns:xlink="http://www.w3.org/1999/xlink" x="0px" y="0px"
	 viewBox="0 0 2350.7 1066.2" style="enable-background:new 0 0 2350.7 1066.2;" xml:space="preserve">
<style type="text/css">
	.st0{fill:#EFF0EA;}
	.st1{fill:#5EA282;}
	.st2{fill:#41715A;}
	.st3{fill:#5FA281;}
	.st4{fill:#41715B;}
	.st5{fill:#959875;}
	.st6{fill:#F7F3C6;}
	.st7{fill:#FFFFFF;}
	.st8{fill:#BFC192;}
	.st9{fill:#979676;}
	.st10{fill:none;}
	.st11{fill:#B7DEA5;}
	.st12{fill:#87C070;}
	.st13{fill:#498643;}
	.st14{fill:#87C06F;}
	.st15{fill:#E2E2E2;}
	.st16{opacity:0.8;fill:#8DD86A;}
	.st17{opacity:0.8;fill:#429314;}
	.st18{opacity:0.9;fill:#429314;}
	.st19{opacity:0.9;fill:#8DD86A;}
	.st20{fill:#8DD86A;}
	.st21{fill:#429314;}
</style>
<g id="фон">
	<rect class="st0" width="2350.7" height="780.7"/>
	<g id="trees_x5F_2">
		<g>
			<rect x="816.7" y="712" class="st1" width="4.5" height="27.7"/>
			<g>
				<path class="st1" d="M821.6,670.7c0.5-4.1,6.6-2.6,5.1,1.3c1.5-3.9,7-0.8,4.6,2.5c2.4-3.4,7,0.9,3.8,3.6
					c3.2-2.7,6.6,2.7,2.8,4.4c3.7-1.8,5.7,4.2,1.6,5c4.1-0.8,4.5,5.5,0.3,5.2c4.1,0.2,3,6.4-1,5.2c3.9,1.3,1.3,7-2.2,4.7
					c3.5,2.2-0.5,7-3.3,4c2.8,3-2.3,6.7-4.2,3.1c2,3.6-3.8,5.9-4.9,1.9c1,4-5.2,4.8-5.2,0.7c0,4.1-6.2,3.3-5.2-0.7
					c-1,4-6.9,1.7-4.9-1.9c-2,3.6-7.1-0.1-4.2-3.1c-2.8,3-6.8-1.8-3.3-4c-3.5,2.2-6.2-3.5-2.2-4.7c-3.9,1.3-5.1-4.9-1-5.2
					c-4.1,0.2-3.7-6,0.3-5.2c-4.1-0.8-2.1-6.8,1.6-5c-3.7-1.8-0.4-7.1,2.8-4.4c-3.2-2.7,1.4-7,3.8-3.6c-2.4-3.4,3.1-6.4,4.6-2.5
					c-1.5-3.9,4.6-5.4,5.1-1.3C815.8,666.6,822.1,666.6,821.6,670.7z"/>
			</g>
			<g>
				<path class="st1" d="M822.9,743c0.1,1.1-0.7,2-1.8,2h-4.4c-1.1,0-1.9-0.9-1.8-2l0.7-6.9c0.1-1.1,1.1-2,2.2-2h2.3
					c1.1,0,2.1,0.9,2.2,2L822.9,743z"/>
			</g>
		</g>
		<g>
			<g>
				<g>
					<rect x="642.4" y="724.5" class="st2" width="2.9" height="17.6"/>
				</g>
				<g>
					<path class="st2" d="M645.5,698.4c0.3-2.6,4.2-1.6,3.2,0.8c1-2.4,4.5-0.5,2.9,1.6c1.5-2.1,4.4,0.6,2.4,2.3
						c2-1.7,4.2,1.7,1.8,2.8c2.4-1.1,3.6,2.7,1,3.2c2.6-0.5,2.8,3.5,0.2,3.3c2.6,0.2,1.9,4.1-0.6,3.3c2.5,0.8,0.8,4.4-1.4,3
						c2.2,1.4-0.3,4.5-2.1,2.6c1.8,1.9-1.4,4.2-2.7,2c1.3,2.3-2.4,3.8-3.1,1.2c0.7,2.5-3.3,3-3.3,0.4c0,2.6-3.9,2.1-3.3-0.4
						c-0.7,2.5-4.4,1.1-3.1-1.2c-1.3,2.3-4.5-0.1-2.7-2c-1.8,1.9-4.3-1.2-2.1-2.6c-2.2,1.4-3.9-2.2-1.4-3c-2.5,0.8-3.2-3.1-0.6-3.3
						c-2.6,0.2-2.4-3.8,0.2-3.3c-2.6-0.5-1.3-4.3,1-3.2c-2.4-1.1-0.2-4.5,1.8-2.8c-2-1.7,0.9-4.4,2.4-2.3c-1.5-2.1,1.9-4.1,2.9-1.6
						c-1-2.4,2.9-3.4,3.2-0.8C641.8,695.8,645.8,695.8,645.5,698.4z"/>
				</g>
				<g>
					<path class="st2" d="M646.3,743.5c0.1,1.1-0.7,2-1.8,2h-1.3c-1.1,0-1.9-0.9-1.8-2l0.3-4c0.1-1.1,1.1-2,2.2-2h0
						c1.1,0,2.1,0.9,2.2,2L646.3,743.5z"/>
				</g>
			</g>
		</g>
		<g>
			<g>
				<g>
					<rect x="1538.9" y="722.4" class="st3" width="3.1" height="19"/>
				</g>
				<g>
					<path class="st3" d="M1542.2,694.2c0.4-2.8,4.5-1.8,3.5,0.9c1-2.6,4.8-0.6,3.1,1.7c1.7-2.3,4.8,0.6,2.6,2.5
						c2.2-1.8,4.5,1.8,1.9,3c2.6-1.2,3.9,2.9,1.1,3.4c2.8-0.5,3.1,3.8,0.2,3.6c2.8,0.2,2,4.4-0.7,3.5c2.7,0.9,0.9,4.8-1.5,3.2
						c2.4,1.5-0.3,4.8-2.3,2.8c1.9,2.1-1.5,4.6-2.9,2.1c1.4,2.5-2.6,4.1-3.3,1.3c0.7,2.7-3.6,3.3-3.6,0.5c0,2.8-4.3,2.3-3.6-0.5
						c-0.7,2.7-4.7,1.2-3.3-1.3c-1.4,2.5-4.8-0.1-2.9-2.1c-1.9,2.1-4.7-1.3-2.3-2.8c-2.4,1.5-4.2-2.4-1.5-3.2
						c-2.7,0.9-3.5-3.4-0.7-3.5c-2.8,0.2-2.6-4.1,0.2-3.6c-2.8-0.5-1.5-4.6,1.1-3.4c-2.6-1.2-0.3-4.8,1.9-3c-2.2-1.8,1-4.8,2.6-2.5
						c-1.7-2.3,2.1-4.4,3.1-1.7c-1-2.6,3.1-3.7,3.5-0.9C1538.3,691.4,1542.6,691.4,1542.2,694.2z"/>
				</g>
				<g>
					<path class="st3" d="M1543.1,743c0.1,1.1-0.7,2-1.8,2h-1.7c-1.1,0-1.9-0.9-1.8-2l0.4-4.7c0.1-1.1,1.1-2,2.2-2h0.3
						c1.1,0,2.1,0.9,2.2,2L1543.1,743z"/>
				</g>
			</g>
		</g>
	</g>
	<rect y="743.3" class="st3" width="2350.7" height="323"/>
</g>
<g id="mountains">
	<polygon class="st4" points="1714.7,868.7 1175.3,917.7 1353.8,815.6 1827.9,831.2 1550,860 	"/>
	<g>
		<polygon class="st5" points="1384.9,588.1 1371.3,578.7 1368.7,620.2 1351.2,579.4 1341.5,596.9 1330.3,583.5 1357,509.2 		"/>
		<polygon class="st6" points="1467.5,819.2 1245.5,812.2 1330.3,583.5 1341.5,596.9 1351.2,579.4 1368.7,620.2 1371.3,578.7 
			1384.9,588.1 1398,625.2 1405,613.2 		"/>
	</g>
	<g>
		<polygon class="st7" points="970.9,470.2 937.6,560.6 992.9,608.4 1006.1,570.9 		"/>
		<polygon class="st8" points="835.9,826 940.7,552.7 952.7,568 965.3,548.7 984,596 986.7,548.7 1001.3,557.4 1016,599.4 1032,552 
			1136.7,906.7 		"/>
	</g>
	<g>
		<polygon class="st9" points="1193.8,558.9 1197.1,497.1 1217.4,509.3 1175.3,395.6 1175.3,516.6 		"/>
		<polygon class="st7" points="1166.8,497.1 1175.3,516.6 1175.3,395.6 1135.7,504.4 1150.8,523.1 		"/>
		<polygon class="st8" points="1257.3,502 1237.3,563.4 1217.4,509.3 1197.1,497.1 1193.8,558.9 1175.3,516.6 1175.3,917.7 
			1367.3,859.6 		"/>
		<polygon class="st6" points="1166.8,497.1 1150.8,523.1 1135.7,504.4 1091.3,626.5 1073.3,577.4 963.7,860.2 1175.3,917.7 
			1175.3,516.6 		"/>
	</g>
</g>
<g id="clouds">
	<path class="st7" d="M1524.7,499H1631c0-0.1,0-0.2,0-0.2c0-7.8-1.6-14.1-10.3-14.1c-1.3,0-1.8,0.2-3,0.4c-3.1-5.9-9.8-9.9-17.5-9.9
		c-8.2,0-15.1,4.5-18,10.9c-3.9-3.3-9.2-5.3-15-5.3c-9.4,0-17.5,5.3-20.6,12.8c-1.4-0.7-5.2-1.1-8.4-0.8
		C1532.8,493.4,1527.2,494.9,1524.7,499z"/>
	<path class="st7" d="M980,638h104c0-0.1,0-0.2,0-0.2c0-8-1.6-14.4-10.1-14.4c-1.3,0-1.8,0.2-3,0.4c-3-6-9.5-10.1-17.1-10.1
		c-8,0-14.8,4.6-17.6,11.1c-3.8-3.4-9-5.4-14.7-5.4c-9.2,0-17.1,5.4-20.1,13c-1.4-0.7-5.1-1.2-8.2-0.8
		C987.9,632.3,982.4,633.8,980,638z"/>
	<path class="st7" d="M1401.5,724.2h-153.7c0-0.1,0-0.3,0-0.4c0-12,9.7-21.6,21.6-21.6c1.8,0,3.6,0.3,5.3,0.7
		c4.2-9,13.3-15.2,23.9-15.2c11.1,0,20.7,6.9,24.5,16.7c5.4-5.1,12.6-8.2,20.5-8.2c12.9,0,23.9,8.2,28.1,19.6
		c3.3-2.4,7.3-3.8,11.6-3.8C1391.5,711.9,1398.6,717,1401.5,724.2z"/>
</g>
<g id="houses">
	<g>
		<polyline class="st4" points="1683.9,764.9 1759.9,764.9 1727.2,743.4 1681.5,743.4 1683.9,764.9 		"/>
		<g>
			<polygon class="st10" points="1641.1,672.6 1641.1,672.6 1641.1,672.6 			"/>
			<polygon class="st8" points="1641.1,718.8 1653.1,718.8 1653.1,742.8 1641.1,742.8 1641.1,764.9 1683.9,764.9 1683.9,715.4 
				1641.1,672.6 			"/>
			<polygon class="st6" points="1629.1,742.8 1629.1,718.8 1641.1,718.8 1641.1,672.6 1641.1,672.6 1641.1,672.6 1598.2,715.4 
				1598.2,764.9 1641.1,764.9 1641.1,742.8 			"/>
			<rect x="1641.1" y="718.8" class="st2" width="12" height="24"/>
			<rect x="1629.1" y="718.8" class="st3" width="12" height="24"/>
			<polygon class="st2" points="1673.5,674 1659.8,674 1659.8,681.2 1673.5,694.9 			"/>
			<polygon class="st3" points="1641.1,672.6 1641.1,672.6 1641.1,672.6 1641.1,672.6 1641.1,662.5 1641.1,662.5 1636,667.5 
				1586.4,717.1 1591.5,722.2 1598.2,715.4 1598.2,709.1 			"/>
			<polygon class="st3" points="1598.2,709.1 1598.2,715.4 1641.1,672.6 			"/>
			<polygon class="st3" points="1641.1,672.6 1641.1,672.6 1641.1,672.6 			"/>
			<polygon class="st2" points="1673.5,694.9 1659.8,681.2 1646.1,667.5 1641.1,662.5 1641.1,672.6 1641.1,672.6 1683.9,715.4 
				1690.7,722.2 1695.7,717.1 			"/>
		</g>
	</g>
	<g>
		<polygon class="st10" points="512.8,624 512.8,624 512.8,624 		"/>
		<polygon class="st8" points="512.8,683.7 528.3,683.7 528.3,714.8 512.8,714.8 512.8,743.5 568.3,743.5 568.3,679.5 512.8,624 		
			"/>
		<polygon class="st6" points="497.2,714.8 497.2,683.7 512.8,683.7 512.8,624 512.8,624 512.8,624 457.3,679.5 457.3,743.5 
			512.8,743.5 512.8,714.8 		"/>
		<rect x="512.8" y="683.7" class="st2" width="15.6" height="31.1"/>
		<rect x="497.2" y="683.7" class="st3" width="15.6" height="31.1"/>
		<polygon class="st2" points="554.8,625.8 537.1,625.8 537.1,635.1 554.8,652.9 		"/>
		<polygon class="st3" points="512.8,624 512.8,624 512.8,624 512.8,624 512.8,610.8 512.8,610.8 506.2,617.4 442,681.6 
			448.5,688.2 457.3,679.5 457.3,671.2 		"/>
		<polygon class="st3" points="457.3,671.2 457.3,679.5 512.8,624 		"/>
		<polygon class="st3" points="512.8,624 512.8,624 512.8,624 		"/>
		<polygon class="st2" points="554.8,652.9 537.1,635.1 519.3,617.4 512.8,610.8 512.8,624 512.8,624 568.3,679.5 577,688.2 
			583.6,681.6 		"/>
	</g>
	<g>
		<polyline class="st4" points="1016.8,918.5 1092.8,918.5 1060.1,897 1014.5,897 1016.8,918.5 		"/>
		<g>
			<polygon class="st10" points="974,826.2 974,826.2 974,826.2 			"/>
			<polygon class="st8" points="974,872.4 986,872.4 986,896.4 974,896.4 974,918.5 1016.8,918.5 1016.8,869 974,826.2 			"/>
			<polygon class="st6" points="962,896.4 962,872.4 974,872.4 974,826.2 974,826.2 974,826.2 931.1,869 931.1,918.5 974,918.5 
				974,896.4 			"/>
			<rect x="974" y="872.4" class="st2" width="12" height="24"/>
			<rect x="962" y="872.4" class="st3" width="12" height="24"/>
			<polygon class="st2" points="1006.5,827.6 992.7,827.6 992.7,834.8 1006.5,848.5 			"/>
			<polygon class="st3" points="974,826.2 974,826.2 974,826.2 974,826.2 974,816.1 974,816.1 968.9,821.1 919.3,870.7 924.4,875.8 
				931.1,869 931.1,862.7 			"/>
			<polygon class="st3" points="931.1,862.7 931.1,869 974,826.2 			"/>
			<polygon class="st3" points="974,826.2 974,826.2 974,826.2 			"/>
			<polygon class="st2" points="1006.5,848.5 992.7,834.8 979,821.1 974,816.1 974,826.2 974,826.2 1016.8,869 1023.6,875.8 
				1028.6,870.7 			"/>
		</g>
	</g>
</g>
<g id="trees">
	<g>
		<polygon class="st4" points="2024.3,803.7 2170.7,811 1969.6,833.7 		"/>
		<g>
			<polygon class="st11" points="1969.6,632.7 1969.6,833.7 1891.7,812.9 1927.8,792.9 1899.8,792.9 1934.5,772.9 1908.3,772.9 
				1941.5,753.1 1916.3,753.1 1947.8,733.2 1924,733.2 1953.5,712.7 1932.5,712.7 1958.2,692.7 1940.1,692.7 1963.8,672.6 
				1948.6,672.6 1967.6,652.7 1956.5,652.7 			"/>
			<polygon class="st12" points="1969.6,632.7 1969.6,833.7 2047.5,812.9 2011.3,792.9 2039.3,792.9 2004.7,772.9 2030.8,772.9 
				1997.7,753.1 2022.8,753.1 1991.3,733.2 2015.2,733.2 1985.7,712.7 2006.7,712.7 1981,692.7 1999.1,692.7 1975.3,672.6 
				1990.6,672.6 1971.6,652.7 1982.7,652.7 			"/>
		</g>
	</g>
	<g>
		<polygon class="st4" points="1547.4,923.8 1726.7,932.8 1480.3,960.6 		"/>
		<g>
			<polygon class="st11" points="1480.3,714.3 1480.3,960.6 1384.9,935.2 1429.1,910.6 1394.8,910.6 1437.3,886.1 1405.3,886.1 
				1445.8,861.8 1415.1,861.8 1453.7,837.4 1424.4,837.4 1460.6,812.3 1434.8,812.3 1466.4,787.8 1444.2,787.8 1473.3,763.1 
				1454.6,763.1 1477.9,738.8 1464.2,738.8 			"/>
			<polygon class="st12" points="1480.3,714.3 1480.3,960.6 1575.7,935.2 1531.5,910.6 1565.8,910.6 1523.4,886.1 1555.4,886.1 
				1514.8,861.8 1545.6,861.8 1507,837.4 1536.2,837.4 1500.1,812.3 1525.8,812.3 1494.3,787.8 1516.5,787.8 1487.4,763.1 
				1506,763.1 1482.8,738.8 1496.4,738.8 			"/>
		</g>
	</g>
	<g>
		<polygon class="st4" points="1261.1,971.3 1372.4,976.9 1219.5,994.1 		"/>
		<g>
			<polygon class="st11" points="1219.5,841.3 1219.5,994.1 1160.3,978.3 1187.8,963.1 1166.5,963.1 1192.8,947.9 1173,947.9 
				1198.1,932.8 1179,932.8 1203,917.7 1184.8,917.7 1207.3,902.1 1191.3,902.1 1210.9,886.9 1197.1,886.9 1215.2,871.6 
				1203.6,871.6 1218,856.5 1209.5,856.5 			"/>
			<polygon class="st12" points="1219.5,841.3 1219.5,994.1 1278.7,978.3 1251.3,963.1 1272.5,963.1 1246.2,947.9 1266.1,947.9 
				1240.9,932.8 1260,932.8 1236.1,917.7 1254.2,917.7 1231.8,902.1 1247.7,902.1 1228.2,886.9 1241.9,886.9 1223.9,871.6 
				1235.5,871.6 1221,856.5 1229.5,856.5 			"/>
		</g>
	</g>
	<g>
		<polygon class="st4" points="806.4,920.1 985.7,929.1 739.3,956.9 		"/>
		<g>
			<polygon class="st11" points="739.3,710.5 739.3,956.9 643.8,931.4 688.1,906.9 653.8,906.9 696.2,882.4 664.2,882.4 
				704.8,858.1 674,858.1 712.6,833.7 683.4,833.7 719.5,808.6 693.8,808.6 725.3,784.1 703.1,784.1 732.2,759.4 713.5,759.4 
				736.8,735 723.2,735 			"/>
			<polygon class="st12" points="739.3,710.5 739.3,956.9 834.7,931.4 790.4,906.9 824.7,906.9 782.3,882.4 814.3,882.4 
				773.7,858.1 804.5,858.1 765.9,833.7 795.2,833.7 759,808.6 784.8,808.6 753.2,784.1 775.4,784.1 746.3,759.4 765,759.4 
				741.7,735 755.3,735 			"/>
		</g>
	</g>
	<g>
		<polygon class="st4" points="508,792.9 305.4,814.2 338.4,784.2 		"/>
		<g>
			<polygon class="st11" points="305.4,613.2 305.4,814.2 227.6,793.4 263.7,773.4 235.7,773.4 270.3,753.4 244.2,753.4 
				277.3,733.6 252.2,733.6 283.7,713.7 259.8,713.7 289.3,693.2 268.3,693.2 294.1,673.2 275.9,673.2 299.7,653.1 284.4,653.1 
				303.4,633.2 292.3,633.2 			"/>
			<polygon class="st13" points="305.4,613.2 305.4,814.2 383.3,793.4 347.2,773.4 375.2,773.4 340.6,753.4 366.7,753.4 
				333.6,733.6 358.7,733.6 327.2,713.7 351.1,713.7 321.6,693.2 342.6,693.2 316.8,673.2 334.9,673.2 311.2,653.1 326.4,653.1 
				307.4,633.2 318.6,633.2 			"/>
		</g>
	</g>
	<g>
		<polyline class="st4" points="546.1,867.3 719.2,849.2 581.1,841.4 546.1,867.3 		"/>
		<g>
			<polygon class="st11" points="546.1,724.9 546.1,867.3 491,852.6 516.6,838.4 496.7,838.4 521.3,824.3 502.8,824.3 526.2,810.2 
				508.4,810.2 530.7,796.1 513.8,796.1 534.7,781.6 519.8,781.6 538.1,767.4 525.2,767.4 542.1,753.2 531.3,753.2 544.7,739.1 
				536.8,739.1 			"/>
			<polygon class="st14" points="546.1,724.9 546.1,867.3 601.3,852.6 575.7,838.4 595.5,838.4 571,824.3 589.5,824.3 566.1,810.2 
				583.8,810.2 561.5,796.1 578.4,796.1 557.6,781.6 572.4,781.6 554.2,767.4 567,767.4 550.2,753.2 561,753.2 547.5,739.1 
				555.4,739.1 			"/>
		</g>
	</g>
</g>
<g id="tower">
	<polygon class="st4" points="1778.4,838.8 2031,851.4 1683.9,890.5 	"/>
	<g>
		<g>
			<polygon class="st10" points="1784.7,781.8 1784.7,746 1737.5,781.8 			"/>
			<polygon class="st10" points="1784.7,823.6 1784.7,792.1 1732.4,792.1 			"/>
			<polygon class="st10" points="1784.7,733 1809.7,714 1784.7,714 1784.7,733 			"/>
			<polygon class="st10" points="1831.8,781.8 1784.7,746 1784.7,746 1784.7,781.8 			"/>
			<polygon class="st10" points="1815.5,703.7 1784.7,607.5 1784.7,607.6 1784.7,703.7 			"/>
			<polygon class="st10" points="1784.7,733 1784.7,714 1759.6,714 			"/>
			<polygon class="st10" points="1723.6,798.9 1699.3,875 1774.6,829.6 			"/>
			<polygon class="st10" points="1784.7,703.7 1784.7,607.6 1754,703.7 			"/>
			<polygon class="st10" points="1749.1,719 1749.1,719 1731.8,773.1 1776.1,739.5 			"/>
			<path class="st7" d="M1784.7,584l-6.8,2.2l1.4,4.4l-93.3,292.5l-0.3,1l-1.9,5.9h10.9l90.1-54.2v-12.1l-52.3-31.5h52.3v-10.3
				h-47.1l47.1-35.8v-13l-25-19h25v-10.3H1754l30.7-96.1V584z M1774.6,829.6l-75.3,45.4l24.3-76.1L1774.6,829.6z M1776.1,739.5
				l-44.3,33.6l17.3-54.1l0,0L1776.1,739.5z"/>
			<path class="st15" d="M1787.7,583l-3,1v23.5l0,0l30.9,96.2h-30.9V714h25l-25,19v13l47.1,35.8h-47.1v10.3h52.3l-50.3,30.3l-2,1.2
				v12.1l90.1,54.2h11.5L1787.7,583z M1793.2,739.5l27.2-20.7l0.1,0.3l17.4,54.3L1793.2,739.5z M1794.7,829.6l2-1.2l49.4-29.8
				l23.7,73.8l0.9,3L1794.7,829.6z"/>
		</g>
		<g>
			<g>
				<g>
					<path class="st10" d="M1751.8,598.3c0,18.4,15,33.5,33.5,33.5V618c-10.9,0-19.7-8.8-19.7-19.7c0-10.9,8.8-19.7,19.7-19.7v-13.7
						C1766.8,564.8,1751.8,579.8,1751.8,598.3z"/>
					<path class="st10" d="M1720.1,598.3c0,35.9,29.2,65.2,65.2,65.2v-14.2c-28.1,0-51-22.9-51-51s22.9-51,51-51v-14.2
						C1749.3,533.1,1720.1,562.4,1720.1,598.3z"/>
					<path class="st10" d="M1785.2,547.3c14,0,26.8,5.7,36,14.9c9.2,9.2,14.9,22,14.9,36c0,14-5.7,26.8-14.9,36
						c-9.2,9.2-22,14.9-36,14.9c0,0,0,0,0,0l0,14.2c0,0,0,0,0,0c18,0,34.2-7.3,46-19.1c11.8-11.8,19.1-28.1,19.1-46.1
						c0-18-7.3-34.2-19.1-46c-11.8-11.8-28.1-19.1-46.1-19.1c0,0,0,0,0,0L1785.2,547.3C1785.2,547.3,1785.2,547.3,1785.2,547.3z"/>
					<path class="st10" d="M1799.2,584.3c3.6,3.6,5.8,8.5,5.8,13.9c0,5.4-2.2,10.4-5.8,14c-3.6,3.6-8.5,5.8-13.9,5.8v13.7
						c0,0,0,0,0,0c9.2,0,17.6-3.8,23.6-9.8c6.1-6.1,9.8-14.4,9.8-23.6c0-9.2-3.8-17.6-9.8-23.6c-6.1-6.1-14.4-9.8-23.6-9.8
						c0,0,0,0,0,0l0,13.7C1790.7,578.6,1795.6,580.8,1799.2,584.3z"/>
					<path class="st16" d="M1720.1,598.3c0-35.9,29.2-65.2,65.2-65.2v-17.5c-45.6,0-82.7,37.1-82.7,82.7c0,45.6,37.1,82.7,82.7,82.7
						v-17.5C1749.3,663.4,1720.1,634.2,1720.1,598.3z"/>
					<path class="st17" d="M1843.7,539.9c-15-15-35.6-24.2-58.4-24.2c0,0,0,0,0,0l0,17.5c0,0,0,0,0,0c18,0,34.3,7.3,46.1,19.1
						c11.8,11.8,19.1,28.1,19.1,46c0,18-7.3,34.3-19.1,46.1c-11.8,11.8-28.1,19.1-46,19.1c0,0,0,0,0,0l0,17.5c0,0,0,0,0,0
						c22.8,0,43.4-9.3,58.4-24.2c15-15,24.2-35.6,24.2-58.4C1867.9,575.5,1858.6,554.8,1843.7,539.9z"/>
					<path class="st18" d="M1821.2,634.3c9.2-9.2,14.9-22,14.9-36c0-14-5.7-26.8-14.9-36c-9.2-9.2-22-14.9-36-14.9c0,0,0,0,0,0
						l0,17.5c0,0,0,0,0,0c9.2,0,17.6,3.8,23.6,9.8c6.1,6.1,9.8,14.4,9.8,23.6c0,9.2-3.8,17.6-9.8,23.6c-6.1,6.1-14.4,9.8-23.6,9.8
						c0,0,0,0,0,0l0,17.5c0,0,0,0,0,0C1799.3,649.2,1812,643.5,1821.2,634.3z"/>
					<path class="st19" d="M1751.8,598.3c0-18.4,15-33.5,33.5-33.5v-17.5c-28.1,0-51,22.9-51,51s22.9,51,51,51v-17.5
						C1766.8,631.7,1751.8,616.7,1751.8,598.3z"/>
					<path class="st20" d="M1765.5,598.3c0,10.9,8.8,19.7,19.7,19.7v-39.4C1774.3,578.6,1765.5,587.4,1765.5,598.3z"/>
					<path class="st21" d="M1805,598.3c0-5.4-2.2-10.4-5.8-13.9c-3.6-3.6-8.5-5.8-14-5.8V618c5.4,0,10.4-2.2,13.9-5.8
						C1802.7,608.7,1805,603.7,1805,598.3z"/>
				</g>
			</g>
		</g>
	</g>
</g>
</svg>
